<svg xmlns="http://www.w3.org/2000/svg" viewBox="0 0 900 606" width="900" height="606" font-family="Helvetica Neue, Arial, sans-serif"><rect width="900" height="606" fill="#fff"/><rect width="900" height="70" fill="#1F3A5F"/><text x="30" y="40" font-size="22" font-weight="800" fill="#fff">Sortir un appareil d'un bootloop</text><text x="30" y="63" font-size="13" fill="#AFC7E6">Restauration logicielle avec le bon firmware officiel</text><rect x="30" y="86" width="268" height="232" rx="12" fill="#F1F6FB" stroke="#D0D9E4" stroke-width="1.4"/><circle cx="60" cy="116" r="17" fill="#2E5E8C"/><text x="60" y="123" font-size="19" font-weight="800" fill="#fff" text-anchor="middle">1</text><g transform="translate(95 130) scale(1.15)"><rect x="40" y="14" width="40" height="92" rx="9" fill="none" stroke="#22405f" stroke-width="3.2"/><rect x="30" y="44" width="8" height="18" rx="3" fill="none" stroke="#C0392B" stroke-width="3"/><rect x="82" y="40" width="8" height="14" rx="3" fill="none" stroke="#C0392B" stroke-width="3"/><line x1="24" y1="52" x2="32" y2="52" stroke="#C0392B" stroke-width="3.4" stroke-linecap="round" /><path d="M24.101756942986647 56.31482984743783 L32 52 L24.101756942986647 47.68517015256217" fill="none" stroke="#C0392B" stroke-width="3.4" stroke-linecap="round" stroke-linejoin="round" /><line x1="96" y1="46" x2="88" y2="46" stroke="#C0392B" stroke-width="3.4" stroke-linecap="round" /><path d="M95.89824305701336 41.68517015256217 L88 46 L95.89824305701336 50.31482984743783" fill="none" stroke="#C0392B" stroke-width="3.4" stroke-linecap="round" stroke-linejoin="round" /></g><text x="164" y="286" font-size="12.6" fill="#243342" text-anchor="middle" font-weight="600"><tspan x="164" dy="0">Entrer en Recovery /</tspan><tspan x="164" dy="15">Download / Fastboot</tspan></text><rect x="316" y="86" width="268" height="232" rx="12" fill="#F1F6FB" stroke="#D0D9E4" stroke-width="1.4"/><circle cx="346" cy="116" r="17" fill="#2E5E8C"/><text x="346" y="123" font-size="19" font-weight="800" fill="#fff" text-anchor="middle">2</text><g transform="translate(381 130) scale(1.15)"><rect x="40" y="14" width="40" height="92" rx="9" fill="none" stroke="#22405f" stroke-width="3.2"/><rect x="48" y="34" width="44" height="52" rx="6" fill="none" stroke="#22405f" stroke-width="3"/><circle cx="56" cy="50" r="3" fill="#22405f"/><circle cx="66" cy="50" r="3" fill="#22405f"/><circle cx="76" cy="50" r="3" fill="#22405f"/><circle cx="72" cy="66" r="12" fill="none" stroke="#C0392B" stroke-width="3"/><line x1="81" y1="75" x2="94" y2="90" stroke="#C0392B" stroke-width="4" stroke-linecap="round" /></g><text x="450" y="286" font-size="12.6" fill="#243342" text-anchor="middle" font-weight="600"><tspan x="450" dy="0">Identifier le bon</tspan><tspan x="450" dy="15">firmware officiel</tspan></text><rect x="602" y="86" width="268" height="232" rx="12" fill="#F1F6FB" stroke="#D0D9E4" stroke-width="1.4"/><circle cx="632" cy="116" r="17" fill="#2E5E8C"/><text x="632" y="123" font-size="19" font-weight="800" fill="#fff" text-anchor="middle">3</text><g transform="translate(667 130) scale(1.15)"><rect x="12" y="30" width="64" height="40" rx="4" fill="none" stroke="#22405f" stroke-width="3.2"/><path d="M4 74 h80 l-6 8 h-68 z" fill="#e9eef4" stroke="#22405f" stroke-width="3" stroke-linecap="round" stroke-linejoin="round" /><rect x="20" y="36" width="52" height="30" rx="3" fill="#ffffff" stroke="#8A95A2" stroke-width="2"/><line x1="20" y1="45" x2="72" y2="45" stroke="#D0D9E4" stroke-width="2" stroke-linecap="round" /><rect x="26" y="52" width="40" height="7" rx="2" fill="#d3dbe4" stroke="#d3dbe4" stroke-width="0"/><rect x="26" y="52" width="22" height="7" rx="2" fill="#27AE60" stroke="#27AE60" stroke-width="0"/></g><text x="736" y="286" font-size="12.6" fill="#243342" text-anchor="middle" font-weight="600"><tspan x="736" dy="0">Restaurer via l'outil</tspan><tspan x="736" dy="15">adapté</tspan></text><rect x="30" y="340" width="268" height="232" rx="12" fill="#F1F6FB" stroke="#D0D9E4" stroke-width="1.4"/><circle cx="60" cy="370" r="17" fill="#2E5E8C"/><text x="60" y="377" font-size="19" font-weight="800" fill="#fff" text-anchor="middle">4</text><g transform="translate(95 384) scale(1.15)"><rect x="24" y="50" width="72" height="20" rx="10" fill="none" stroke="#22405f" stroke-width="3.2"/><rect x="28" y="54" width="40" height="12" rx="6" fill="#27AE60" stroke="#27AE60" stroke-width="0"/><circle cx="0" cy="0" r="0" fill="#22405f"/><text x="60" y="92" font-size="15" fill="#6B7684" text-anchor="middle" font-weight="700">45%</text></g><text x="164" y="540" font-size="12.6" fill="#243342" text-anchor="middle" font-weight="600"><tspan x="164" dy="0">Laisser le flash</tspan><tspan x="164" dy="15">se terminer</tspan></text><rect x="316" y="340" width="268" height="232" rx="12" fill="#F1F6FB" stroke="#D0D9E4" stroke-width="1.4"/><circle cx="346" cy="370" r="17" fill="#27AE60"/><text x="346" y="377" font-size="19" font-weight="800" fill="#fff" text-anchor="middle">5</text><g transform="translate(381 384) scale(1.15)"><rect x="40" y="14" width="40" height="92" rx="9" fill="none" stroke="#22405f" stroke-width="3.2"/><path d="M50 58 l8 9 l16 -20" fill="none" stroke="#27AE60" stroke-width="4" stroke-linecap="round" stroke-linejoin="round" /></g><text x="450" y="540" font-size="12.6" fill="#243342" text-anchor="middle" font-weight="600"><tspan x="450" dy="0">Vérifier un démarrage</tspan><tspan x="450" dy="15">stable</tspan></text></svg>