<svg xmlns="http://www.w3.org/2000/svg" viewBox="0 0 900 606" width="900" height="606" font-family="Helvetica Neue, Arial, sans-serif"><rect width="900" height="606" fill="#fff"/><rect width="900" height="70" fill="#1F3A5F"/><text x="30" y="40" font-size="22" font-weight="800" fill="#fff">Restaurer un iPhone — Recovery / DFU</text><text x="30" y="63" font-size="13" fill="#AFC7E6">Restauration officielle via Finder / iTunes (IPSW signé)</text><rect x="30" y="86" width="268" height="232" rx="12" fill="#F1F6FB" stroke="#D0D9E4" stroke-width="1.4"/><circle cx="60" cy="116" r="17" fill="#2E5E8C"/><text x="60" y="123" font-size="19" font-weight="800" fill="#fff" text-anchor="middle">1</text><g transform="translate(95 130) scale(1.15)"><path d="M40 54 q-18 0 -18 -16 q0 -14 16 -14 q2 -14 18 -14 q16 0 18 16 q14 0 14 14 q0 14 -16 14" fill="none" stroke="#22405f" stroke-width="3" stroke-linecap="round" stroke-linejoin="round" /><line x1="60" y1="50" x2="60" y2="86" stroke="#27AE60" stroke-width="3.4" stroke-linecap="round" /><path d="M55.68517015256217 78.10175694298664 L60 86 L64.31482984743782 78.10175694298664" fill="none" stroke="#27AE60" stroke-width="3.4" stroke-linecap="round" stroke-linejoin="round" /><line x1="48" y1="74" x2="60" y2="86" stroke="#27AE60" stroke-width="3.4" stroke-linecap="round" /><line x1="72" y1="74" x2="60" y2="86" stroke="#27AE60" stroke-width="3.4" stroke-linecap="round" /></g><text x="164" y="286" font-size="12.6" fill="#243342" text-anchor="middle" font-weight="600"><tspan x="164" dy="0">Sauvegarder si l'appareil</tspan><tspan x="164" dy="15">est encore accessible</tspan></text><rect x="316" y="86" width="268" height="232" rx="12" fill="#F1F6FB" stroke="#D0D9E4" stroke-width="1.4"/><circle cx="346" cy="116" r="17" fill="#2E5E8C"/><text x="346" y="123" font-size="19" font-weight="800" fill="#fff" text-anchor="middle">2</text><g transform="translate(381 130) scale(1.15)"><rect x="10" y="34" width="64" height="40" rx="4" fill="none" stroke="#22405f" stroke-width="3.2"/><path d="M2 78 h80 l-6 8 h-68 z" fill="#e9eef4" stroke="#22405f" stroke-width="3" stroke-linecap="round" stroke-linejoin="round" /><rect x="96" y="26" width="30" height="64" rx="9" fill="none" stroke="#22405f" stroke-width="3.2"/><line x1="74" y1="58" x2="96" y2="58" stroke="#2E5E8C" stroke-width="3" stroke-linecap="round" stroke-dasharray="4 4"/><rect x="90" y="54" width="8" height="8" rx="2" fill="none" stroke="#22405f" stroke-width="2.4"/></g><text x="450" y="286" font-size="12.6" fill="#243342" text-anchor="middle" font-weight="600"><tspan x="450" dy="0">Brancher l'iPhone</tspan><tspan x="450" dy="15">à l'ordinateur</tspan></text><rect x="602" y="86" width="268" height="232" rx="12" fill="#F1F6FB" stroke="#D0D9E4" stroke-width="1.4"/><circle cx="632" cy="116" r="17" fill="#2E5E8C"/><text x="632" y="123" font-size="19" font-weight="800" fill="#fff" text-anchor="middle">3</text><g transform="translate(667 130) scale(1.15)"><rect x="40" y="14" width="40" height="92" rx="9" fill="none" stroke="#22405f" stroke-width="3.2"/><rect x="30" y="44" width="8" height="18" rx="3" fill="none" stroke="#C0392B" stroke-width="3"/><rect x="82" y="40" width="8" height="14" rx="3" fill="none" stroke="#C0392B" stroke-width="3"/><circle cx="60" cy="58" r="14" fill="none" stroke="#22405f" stroke-width="3"/><path d="M60 50 v8 l6 4" fill="none" stroke="#22405f" stroke-width="3" stroke-linecap="round" stroke-linejoin="round" /></g><text x="736" y="286" font-size="12.6" fill="#243342" text-anchor="middle" font-weight="600"><tspan x="736" dy="0">Entrer en mode Recovery</tspan><tspan x="736" dy="15">ou DFU</tspan></text><rect x="30" y="340" width="268" height="232" rx="12" fill="#F1F6FB" stroke="#D0D9E4" stroke-width="1.4"/><circle cx="60" cy="370" r="17" fill="#2E5E8C"/><text x="60" y="377" font-size="19" font-weight="800" fill="#fff" text-anchor="middle">4</text><g transform="translate(95 384) scale(1.15)"><rect x="16" y="26" width="88" height="58" rx="6" fill="none" stroke="#22405f" stroke-width="3.2"/><line x1="16" y1="40" x2="104" y2="40" stroke="#22405f" stroke-width="2.4" stroke-linecap="round" /><circle cx="26" cy="33" r="2.4" fill="#C0392B"/><circle cx="34" cy="33" r="2.4" fill="#E8A13A"/><circle cx="42" cy="33" r="2.4" fill="#27AE60"/><rect x="40" y="54" width="40" height="16" rx="4" fill="#2E5E8C" stroke="#2E5E8C" stroke-width="0"/><text x="60" y="66" font-size="10" fill="#fff" text-anchor="middle" font-weight="700">Restaurer</text></g><text x="164" y="540" font-size="12.6" fill="#243342" text-anchor="middle" font-weight="600"><tspan x="164" dy="0">Finder/iTunes →</tspan><tspan x="164" dy="15">« Restaurer »</tspan></text><rect x="316" y="340" width="268" height="232" rx="12" fill="#F1F6FB" stroke="#D0D9E4" stroke-width="1.4"/><circle cx="346" cy="370" r="17" fill="#2E5E8C"/><text x="346" y="377" font-size="19" font-weight="800" fill="#fff" text-anchor="middle">5</text><g transform="translate(381 384) scale(1.15)"><rect x="24" y="50" width="72" height="20" rx="10" fill="none" stroke="#22405f" stroke-width="3.2"/><rect x="28" y="54" width="40" height="12" rx="6" fill="#27AE60" stroke="#27AE60" stroke-width="0"/><circle cx="0" cy="0" r="0" fill="#22405f"/><text x="60" y="92" font-size="15" fill="#6B7684" text-anchor="middle" font-weight="700">45%</text></g><text x="450" y="540" font-size="12.6" fill="#243342" text-anchor="middle" font-weight="600"><tspan x="450" dy="0">Laisser l'opération</tspan><tspan x="450" dy="15">se terminer</tspan></text><rect x="602" y="340" width="268" height="232" rx="12" fill="#F1F6FB" stroke="#D0D9E4" stroke-width="1.4"/><circle cx="632" cy="370" r="17" fill="#27AE60"/><text x="632" y="377" font-size="19" font-weight="800" fill="#fff" text-anchor="middle">6</text><g transform="translate(667 384) scale(1.15)"><rect x="40" y="14" width="40" height="92" rx="9" fill="none" stroke="#22405f" stroke-width="3.2"/><path d="M50 58 l8 9 l16 -20" fill="none" stroke="#27AE60" stroke-width="4" stroke-linecap="round" stroke-linejoin="round" /></g><text x="736" y="540" font-size="12.6" fill="#243342" text-anchor="middle" font-weight="600"><tspan x="736" dy="0">Reconfigurer (compte</tspan><tspan x="736" dy="15">d'origine si demandé)</tspan></text></svg>