<svg xmlns="http://www.w3.org/2000/svg" viewBox="0 0 900 360" width="900" height="360" font-family="Helvetica Neue, Arial, sans-serif"><defs>
    <marker id="arr" markerWidth="10" markerHeight="10" refX="7" refY="3" orient="auto" markerUnits="strokeWidth">
      <path d="M0,0 L7,3 L0,6 Z" fill="#2E5E8C"/>
    </marker>
    <marker id="arrG" markerWidth="10" markerHeight="10" refX="7" refY="3" orient="auto" markerUnits="strokeWidth">
      <path d="M0,0 L7,3 L0,6 Z" fill="#27AE60"/>
    </marker>
    <filter id="sh" x="-20%" y="-20%" width="140%" height="140%">
      <feDropShadow dx="0" dy="1.5" stdDeviation="2.2" flood-color="#1F3A5F" flood-opacity="0.16"/>
    </filter>
  </defs><rect x="0" y="0" width="900" height="360" fill="#FFFFFF"/><text x="450" y="40" font-size="21" fill="#1F3A5F" font-weight="700" text-anchor="middle">AirPods &amp; écouteurs sans fil : que peut-on vraiment faire ?</text><rect x="70" y="80" width="380" height="240" rx="14" fill="#EAF7EE" filter="url(#sh)"/><rect x="70" y="80" width="380" height="46" rx="14" fill="#27AE60"/><rect x="70" y="112" width="380" height="14" fill="#27AE60"/><text x="94" y="110" font-size="16" fill="#FFFFFF" font-weight="800" text-anchor="start">Réparable / rentable</text><text x="94" y="155" font-size="17" font-weight="800" fill="#27AE60">✓</text><text x="118" y="150" font-size="12.5" fill="#243342" font-weight="600" text-anchor="start"><tspan x="118" dy="0">Nettoyage des grilles (son faible)</tspan></text><text x="94" y="197" font-size="17" font-weight="800" fill="#27AE60">✓</text><text x="118" y="192" font-size="12.5" fill="#243342" font-weight="600" text-anchor="start"><tspan x="118" dy="0">Embouts silicone (AirPods Pro)</tspan></text><text x="94" y="239" font-size="17" font-weight="800" fill="#27AE60">✓</text><text x="118" y="234" font-size="12.5" fill="#243342" font-weight="600" text-anchor="start"><tspan x="118" dy="0">Remplacement de l'étui de charge</tspan></text><text x="94" y="281" font-size="17" font-weight="800" fill="#27AE60">✓</text><text x="118" y="276" font-size="12.5" fill="#243342" font-weight="600" text-anchor="start"><tspan x="118" dy="0">Reset / appairage / firmware</tspan></text><rect x="470" y="80" width="380" height="240" rx="14" fill="#FDECEA" filter="url(#sh)"/><rect x="470" y="80" width="380" height="46" rx="14" fill="#C0392B"/><rect x="470" y="112" width="380" height="14" fill="#C0392B"/><text x="494" y="110" font-size="16" fill="#FFFFFF" font-weight="800" text-anchor="start">Difficile / non rentable</text><text x="494" y="155" font-size="17" font-weight="800" fill="#C0392B">✕</text><text x="518" y="150" font-size="12.5" fill="#243342" font-weight="600" text-anchor="start"><tspan x="518" dy="0">Batterie interne (boîtier scellé aux ultrasons)</tspan></text><text x="494" y="197" font-size="17" font-weight="800" fill="#C0392B">✕</text><text x="518" y="192" font-size="12.5" fill="#243342" font-weight="600" text-anchor="start"><tspan x="518" dy="0">Ouverture destructive</tspan></text><text x="494" y="239" font-size="17" font-weight="800" fill="#C0392B">✕</text><text x="518" y="234" font-size="12.5" fill="#243342" font-weight="600" text-anchor="start"><tspan x="518" dy="0">Souvent : orienter vers SAV / reconditionné</tspan></text><text x="450" y="346" font-size="12" fill="#6B7684" font-weight="400" text-anchor="middle" font-style="italic">Astuce : proposez un « service de nettoyage écouteurs » à prix fixe — rapide et très rentable.</text></svg>