<svg xmlns="http://www.w3.org/2000/svg" viewBox="0 0 900 606" width="900" height="606" font-family="Helvetica Neue, Arial, sans-serif"><rect x="0" y="0" width="900" height="606" fill="#FFFFFF"/><rect x="0" y="0" width="900" height="70" fill="#1F3A5F"/><text x="30" y="40" font-size="22" font-weight="800" fill="#FFFFFF">PC portable : SSD &amp; RAM</text><text x="30" y="63" font-size="13" fill="#AFC7E6">HDD → SSD = le plus grand gain de performance</text><rect x="30" y="86" width="268" height="232" rx="12" fill="#F1F6FB" stroke="#D0D9E4" stroke-width="1.4"/><circle cx="60" cy="116" r="17" fill="#2E5E8C"/><text x="60" y="123" font-size="19" font-weight="800" fill="#FFFFFF" text-anchor="middle">1</text><g transform="translate(95 130) scale(1.15)"><path d="M28 30 h64 v52 h-64 z" fill="none" stroke="#22405f" stroke-width="3.2" stroke-linecap="round" stroke-linejoin="round" /><circle cx="38" cy="40" r="3" fill="#22405f"/><circle cx="82" cy="40" r="3" fill="#22405f"/><circle cx="38" cy="72" r="3" fill="#22405f"/><circle cx="82" cy="72" r="3" fill="#22405f"/><circle cx="60" cy="56" r="3" fill="#C0392B"/></g><text x="164" y="286" font-size="12.6" fill="#243342" text-anchor="middle" font-weight="600"><tspan x="164" dy="0">Ouvrir, débrancher</tspan><tspan x="164" dy="15">la batterie</tspan></text><rect x="316" y="86" width="268" height="232" rx="12" fill="#F1F6FB" stroke="#D0D9E4" stroke-width="1.4"/><circle cx="346" cy="116" r="17" fill="#2E5E8C"/><text x="346" y="123" font-size="19" font-weight="800" fill="#FFFFFF" text-anchor="middle">2</text><g transform="translate(381 130) scale(1.15)"><rect x="30" y="44" width="60" height="44" rx="5" fill="none" stroke="#22405f" stroke-width="3.2"/><line x1="30" y1="66" x2="90" y2="66" stroke="#22405f" stroke-width="2.4" stroke-linecap="round" /><circle cx="44" cy="56" r="2.6" fill="#22405f"/><circle cx="44" cy="78" r="2.6" fill="#22405f"/><line x1="30" y1="52" x2="24" y2="52" stroke="#C0392B" stroke-width="4" stroke-linecap="round" /><line x1="30" y1="60" x2="24" y2="60" stroke="#C0392B" stroke-width="4" stroke-linecap="round" /></g><text x="450" y="286" font-size="12.6" fill="#243342" text-anchor="middle" font-weight="600"><tspan x="450" dy="0">Remplacer le disque</tspan><tspan x="450" dy="15">(SATA / NVMe)</tspan></text><rect x="602" y="86" width="268" height="232" rx="12" fill="#F1F6FB" stroke="#D0D9E4" stroke-width="1.4"/><circle cx="632" cy="116" r="17" fill="#2E5E8C"/><text x="632" y="123" font-size="19" font-weight="800" fill="#FFFFFF" text-anchor="middle">3</text><g transform="translate(667 130) scale(1.15)"><rect x="30" y="70" width="64" height="16" rx="3" fill="none" stroke="#22405f" stroke-width="3.2"/><path d="M40 68 l44 -30 l0 16 l-44 30 z" fill="none" stroke="#22405f" stroke-width="3.2" stroke-linecap="round" stroke-linejoin="round" /><line x1="70" y1="30" x2="58" y2="44" stroke="#C0392B" stroke-width="3.4" stroke-linecap="round" /><path d="M59.86404539721277 35.19515276923387 L58 44 L66.4161714967128 40.81126085451962" fill="none" stroke="#C0392B" stroke-width="3.4" stroke-linecap="round" stroke-linejoin="round" /><line x1="46" y1="78" x2="46" y2="84" stroke="#22405f" stroke-width="3.2" stroke-linecap="round" /><line x1="54" y1="78" x2="54" y2="84" stroke="#22405f" stroke-width="3.2" stroke-linecap="round" /><line x1="62" y1="78" x2="62" y2="84" stroke="#22405f" stroke-width="3.2" stroke-linecap="round" /></g><text x="736" y="286" font-size="12.6" fill="#243342" text-anchor="middle" font-weight="600"><tspan x="736" dy="0">Ajouter / changer la RAM</tspan><tspan x="736" dy="15">(vérifier type &amp; fréquence)</tspan></text><rect x="30" y="340" width="268" height="232" rx="12" fill="#F1F6FB" stroke="#D0D9E4" stroke-width="1.4"/><circle cx="60" cy="370" r="17" fill="#2E5E8C"/><text x="60" y="377" font-size="19" font-weight="800" fill="#FFFFFF" text-anchor="middle">4</text><g transform="translate(95 384) scale(1.15)"><rect x="34" y="34" width="52" height="66" rx="8" fill="none" stroke="#22405f" stroke-width="3.2"/><line x1="48" y1="20" x2="48" y2="32" stroke="#22405f" stroke-width="3.4" stroke-linecap="round" /><path d="M43.68517015256217 24.101756942986647 L48 32 L52.31482984743783 24.101756942986647" fill="none" stroke="#22405f" stroke-width="3.4" stroke-linecap="round" stroke-linejoin="round" /><line x1="72" y1="20" x2="72" y2="32" stroke="#22405f" stroke-width="3.4" stroke-linecap="round" /><path d="M67.68517015256216 24.101756942986647 L72 32 L76.31482984743782 24.101756942986647" fill="none" stroke="#22405f" stroke-width="3.4" stroke-linecap="round" stroke-linejoin="round" /></g><text x="164" y="540" font-size="12.6" fill="#243342" text-anchor="middle" font-weight="600"><tspan x="164" dy="0">Bien enficher et</tspan><tspan x="164" dy="15">clipser les modules</tspan></text><rect x="316" y="340" width="268" height="232" rx="12" fill="#F1F6FB" stroke="#D0D9E4" stroke-width="1.4"/><circle cx="346" cy="370" r="17" fill="#27AE60"/><text x="346" y="377" font-size="19" font-weight="800" fill="#FFFFFF" text-anchor="middle">5</text><g transform="translate(381 384) scale(1.15)"><rect x="40" y="14" width="40" height="92" rx="9" fill="none" stroke="#22405f" stroke-width="3.2"/><path d="M50 58 l8 9 l16 -20" fill="none" stroke="#27AE60" stroke-width="4" stroke-linecap="round" stroke-linejoin="round" /></g><text x="450" y="540" font-size="12.6" fill="#243342" text-anchor="middle" font-weight="600"><tspan x="450" dy="0">Réinstaller l'OS / cloner,</tspan><tspan x="450" dy="15">puis tester</tspan></text></svg>