<svg xmlns="http://www.w3.org/2000/svg" viewBox="0 0 900 252" width="900" height="252" font-family="Helvetica Neue, Arial, sans-serif"><defs>
  <linearGradient id="mtl" x1="0" y1="0" x2="1" y2="1"><stop offset="0" stop-color="#EDF1F6"/><stop offset="0.5" stop-color="#BFC8D3"/><stop offset="1" stop-color="#8A95A2"/></linearGradient>
  <linearGradient id="mtlV" x1="0" y1="0" x2="0" y2="1"><stop offset="0" stop-color="#EDF1F6"/><stop offset="1" stop-color="#5A6470"/></linearGradient>
  <linearGradient id="red" x1="0" y1="0" x2="0" y2="1"><stop offset="0" stop-color="#D65449"/><stop offset="1" stop-color="#A32B21"/></linearGradient>
  <linearGradient id="blu" x1="0" y1="0" x2="0" y2="1"><stop offset="0" stop-color="#5E9BD1"/><stop offset="1" stop-color="#2C6AA0"/></linearGradient>
  <filter id="ds" x="-30%" y="-30%" width="160%" height="160%"><feDropShadow dx="0" dy="2.5" stdDeviation="3" flood-color="#1F3A5F" flood-opacity="0.28"/></filter>
</defs><rect x="0" y="0" width="900" height="252" fill="#FFFFFF"/><rect x="0" y="0" width="900" height="42" fill="#2E5E8C"/><text x="24" y="36" font-size="21" font-weight="800" fill="#fff">Matériel — Clavier de PC portable</text><rect x="24" y="56" width="272" height="170" rx="12" fill="#F4F7FB" stroke="#D0D9E4" stroke-width="1.4"/><g transform="translate(91 72) scale(0.92)"><g filter="url(#ds)" transform="translate(20 40) rotate(18)"><rect x="0" y="-13" width="60" height="26" rx="12" fill="url(#red)" stroke="#8a1f18" stroke-width="1.5"/><rect x="8" y="-8" width="40" height="4" rx="2" fill="#e58174" opacity="0.6"/><rect x="60" y="-4" width="64" height="8" rx="3" fill="url(#mtl)" stroke="#8A95A2"/><rect x="122" y="-5" width="12" height="10" fill="#8A95A2"/></g></g><text x="160" y="210" font-size="14" font-weight="700" fill="#1F3A5F" text-anchor="middle">Tournevis</text><rect x="314" y="56" width="272" height="170" rx="12" fill="#F4F7FB" stroke="#D0D9E4" stroke-width="1.4"/><g transform="translate(381 72) scale(0.92)"><g filter="url(#ds)" transform="translate(14 52) rotate(10)"><rect x="0" y="-6" width="110" height="12" rx="6" fill="#1e2a38"/><path d="M110 -6 q22 2 30 6 q-8 4 -30 6 Z" fill="#141b24"/><rect x="8" y="-3" width="80" height="3" rx="1.5" fill="#3a4a5c" opacity="0.6"/></g></g><text x="450" y="210" font-size="14" font-weight="700" fill="#1F3A5F" text-anchor="middle">Spudger</text><rect x="604" y="56" width="272" height="170" rx="12" fill="#F4F7FB" stroke="#D0D9E4" stroke-width="1.4"/><g transform="translate(671 72) scale(0.92)"><g filter="url(#ds)" transform="translate(30 34) rotate(-8)"><rect x="0" y="0" width="96" height="60" rx="8" fill="url(#blu)" stroke="#22537f" stroke-width="1.5"/><rect x="10" y="10" width="76" height="8" rx="4" fill="#ffffff" opacity="0.25"/></g></g><text x="740" y="210" font-size="14" font-weight="700" fill="#1F3A5F" text-anchor="middle">Carte d'ouverture</text></svg>