<svg xmlns="http://www.w3.org/2000/svg" viewBox="0 0 900 440" width="900" height="440" font-family="Helvetica Neue, Arial, sans-serif"><defs>
  <linearGradient id="mtl" x1="0" y1="0" x2="1" y2="1"><stop offset="0" stop-color="#EDF1F6"/><stop offset="0.5" stop-color="#BFC8D3"/><stop offset="1" stop-color="#8A95A2"/></linearGradient>
  <linearGradient id="mtlV" x1="0" y1="0" x2="0" y2="1"><stop offset="0" stop-color="#EDF1F6"/><stop offset="1" stop-color="#5A6470"/></linearGradient>
  <linearGradient id="red" x1="0" y1="0" x2="0" y2="1"><stop offset="0" stop-color="#D65449"/><stop offset="1" stop-color="#A32B21"/></linearGradient>
  <linearGradient id="blu" x1="0" y1="0" x2="0" y2="1"><stop offset="0" stop-color="#5E9BD1"/><stop offset="1" stop-color="#2C6AA0"/></linearGradient>
  <filter id="ds" x="-30%" y="-30%" width="160%" height="160%"><feDropShadow dx="0" dy="2.5" stdDeviation="3" flood-color="#1F3A5F" flood-opacity="0.28"/></filter>
</defs><rect x="0" y="0" width="900" height="440" fill="#FFFFFF"/><rect x="0" y="0" width="900" height="42" fill="#2E5E8C"/><text x="24" y="36" font-size="21" font-weight="800" fill="#fff">Matériel — Remplacement d'écran</text><rect x="24" y="56" width="199.5" height="170" rx="12" fill="#F4F7FB" stroke="#D0D9E4" stroke-width="1.4"/><g transform="translate(54.75 72) scale(0.92)"><g filter="url(#ds)" transform="translate(16 22)"><rect x="0" y="20" width="70" height="34" rx="10" fill="#3a4552"/><rect x="66" y="26" width="46" height="22" rx="8" fill="url(#mtlV)" stroke="#5A6470"/><rect x="18" y="54" width="24" height="34" rx="6" fill="#2b3542"/><g stroke="#E8A13A" stroke-width="3" stroke-linecap="round" opacity="0.9"><path d="M116 30 q10 -6 20 0"/><path d="M116 37 q10 6 20 0"/><path d="M116 44 q10 -6 20 0"/></g></g></g><text x="123.75" y="210" font-size="14" font-weight="700" fill="#1F3A5F" text-anchor="middle">Chaleur</text><rect x="241.5" y="56" width="199.5" height="170" rx="12" fill="#F4F7FB" stroke="#D0D9E4" stroke-width="1.4"/><g transform="translate(272.25 72) scale(0.92)"><g filter="url(#ds)" transform="translate(75 66)"><ellipse cx="0" cy="26" rx="30" ry="10" fill="#8a1f18"/><path d="M-30 26 Q0 6 30 26 Q0 36 -30 26 Z" fill="url(#red)"/><rect x="-5" y="-40" width="10" height="66" rx="4" fill="url(#mtlV)" stroke="#5A6470"/><ellipse cx="0" cy="-40" rx="14" ry="6" fill="url(#mtl)" stroke="#5A6470"/></g></g><text x="341.25" y="210" font-size="14" font-weight="700" fill="#1F3A5F" text-anchor="middle">Ventouse</text><rect x="459" y="56" width="199.5" height="170" rx="12" fill="#F4F7FB" stroke="#D0D9E4" stroke-width="1.4"/><g transform="translate(489.75 72) scale(0.92)"><g filter="url(#ds)"><path d="M30 40 l70 -14 l-4 26 z" fill="#E8A13A" stroke="#00000022" transform="rotate(-18 75 60)"/><path d="M38 50 l70 -14 l-4 26 z" fill="#4A90C2" stroke="#00000022" transform="rotate(6 75 60)"/><path d="M46 60 l70 -14 l-4 26 z" fill="#27AE60" stroke="#00000022" transform="rotate(30 75 60)"/></g></g><text x="558.75" y="210" font-size="14" font-weight="700" fill="#1F3A5F" text-anchor="middle">Médiators</text><rect x="676.5" y="56" width="199.5" height="170" rx="12" fill="#F4F7FB" stroke="#D0D9E4" stroke-width="1.4"/><g transform="translate(707.25 72) scale(0.92)"><g filter="url(#ds)" transform="translate(14 52) rotate(10)"><rect x="0" y="-6" width="110" height="12" rx="6" fill="#1e2a38"/><path d="M110 -6 q22 2 30 6 q-8 4 -30 6 Z" fill="#141b24"/><rect x="8" y="-3" width="80" height="3" rx="1.5" fill="#3a4a5c" opacity="0.6"/></g></g><text x="776.25" y="210" font-size="14" font-weight="700" fill="#1F3A5F" text-anchor="middle">Spudger</text><rect x="24" y="244" width="199.5" height="170" rx="12" fill="#F4F7FB" stroke="#D0D9E4" stroke-width="1.4"/><g transform="translate(54.75 260) scale(0.92)"><g filter="url(#ds)" transform="translate(20 40) rotate(18)"><rect x="0" y="-13" width="60" height="26" rx="12" fill="url(#red)" stroke="#8a1f18" stroke-width="1.5"/><rect x="8" y="-8" width="40" height="4" rx="2" fill="#e58174" opacity="0.6"/><rect x="60" y="-4" width="64" height="8" rx="3" fill="url(#mtl)" stroke="#8A95A2"/><rect x="122" y="-5" width="12" height="10" fill="#8A95A2"/></g></g><text x="123.75" y="398" font-size="14" font-weight="700" fill="#1F3A5F" text-anchor="middle">Tournevis</text><rect x="241.5" y="244" width="199.5" height="170" rx="12" fill="#F4F7FB" stroke="#D0D9E4" stroke-width="1.4"/><g transform="translate(272.25 260) scale(0.92)"><g filter="url(#ds)" transform="translate(20 30) rotate(8)"><path d="M0 0 L118 26" stroke="url(#mtl)" stroke-width="8" stroke-linecap="round"/><path d="M0 6 L118 44" stroke="url(#mtl)" stroke-width="8" stroke-linecap="round"/><circle cx="4" cy="3" r="6" fill="#5A6470"/></g></g><text x="341.25" y="398" font-size="14" font-weight="700" fill="#1F3A5F" text-anchor="middle">Pincette</text><rect x="459" y="244" width="199.5" height="170" rx="12" fill="#F4F7FB" stroke="#D0D9E4" stroke-width="1.4"/><g transform="translate(489.75 260) scale(0.92)"><g filter="url(#ds)" transform="translate(34 24)"><circle cx="40" cy="40" r="34" fill="#2b3542"/><circle cx="40" cy="40" r="14" fill="#f4f7fb"/><path d="M40 6 a34 34 0 0 1 30 18 l-14 6 a18 18 0 0 0 -16 -10 z" fill="#E8A13A"/></g></g><text x="558.75" y="398" font-size="14" font-weight="700" fill="#1F3A5F" text-anchor="middle">Adhésif neuf</text></svg>