<svg xmlns="http://www.w3.org/2000/svg" viewBox="0 0 900 252" width="900" height="252" font-family="Helvetica Neue, Arial, sans-serif"><defs>
  <linearGradient id="mtl" x1="0" y1="0" x2="1" y2="1"><stop offset="0" stop-color="#EDF1F6"/><stop offset="0.5" stop-color="#BFC8D3"/><stop offset="1" stop-color="#8A95A2"/></linearGradient>
  <linearGradient id="mtlV" x1="0" y1="0" x2="0" y2="1"><stop offset="0" stop-color="#EDF1F6"/><stop offset="1" stop-color="#5A6470"/></linearGradient>
  <linearGradient id="red" x1="0" y1="0" x2="0" y2="1"><stop offset="0" stop-color="#D65449"/><stop offset="1" stop-color="#A32B21"/></linearGradient>
  <linearGradient id="blu" x1="0" y1="0" x2="0" y2="1"><stop offset="0" stop-color="#5E9BD1"/><stop offset="1" stop-color="#2C6AA0"/></linearGradient>
  <filter id="ds" x="-30%" y="-30%" width="160%" height="160%"><feDropShadow dx="0" dy="2.5" stdDeviation="3" flood-color="#1F3A5F" flood-opacity="0.28"/></filter>
</defs><rect x="0" y="0" width="900" height="252" fill="#FFFFFF"/><rect x="0" y="0" width="900" height="42" fill="#2E5E8C"/><text x="24" y="36" font-size="21" font-weight="800" fill="#fff">Matériel — SSD &amp; RAM</text><rect x="24" y="56" width="199.5" height="170" rx="12" fill="#F4F7FB" stroke="#D0D9E4" stroke-width="1.4"/><g transform="translate(54.75 72) scale(0.92)"><g filter="url(#ds)" transform="translate(20 40) rotate(18)"><rect x="0" y="-13" width="60" height="26" rx="12" fill="url(#red)" stroke="#8a1f18" stroke-width="1.5"/><rect x="8" y="-8" width="40" height="4" rx="2" fill="#e58174" opacity="0.6"/><rect x="60" y="-4" width="64" height="8" rx="3" fill="url(#mtl)" stroke="#8A95A2"/><rect x="122" y="-5" width="12" height="10" fill="#8A95A2"/></g></g><text x="123.75" y="210" font-size="14" font-weight="700" fill="#1F3A5F" text-anchor="middle">Tournevis</text><rect x="241.5" y="56" width="199.5" height="170" rx="12" fill="#F4F7FB" stroke="#D0D9E4" stroke-width="1.4"/><g transform="translate(272.25 72) scale(0.92)"><g filter="url(#ds)" transform="translate(12 36) rotate(-4)"><rect x="0" y="0" width="130" height="48" rx="6" fill="#1b3a5a"/><rect x="10" y="10" width="72" height="28" rx="4" fill="#0e2136"/><text x="46" y="29" font-size="12" fill="#7fb6e4" text-anchor="middle" font-weight="700">SSD</text><g fill="#E8A13A"><rect x="90" y="12" width="3" height="24"/><rect x="95" y="12" width="3" height="24"/><rect x="100" y="12" width="3" height="24"/><rect x="105" y="12" width="3" height="24"/><rect x="110" y="12" width="3" height="24"/><rect x="115" y="12" width="3" height="24"/><rect x="120" y="12" width="3" height="24"/><rect x="125" y="12" width="3" height="24"/></g></g></g><text x="341.25" y="210" font-size="14" font-weight="700" fill="#1F3A5F" text-anchor="middle">SSD</text><rect x="459" y="56" width="199.5" height="170" rx="12" fill="#F4F7FB" stroke="#D0D9E4" stroke-width="1.4"/><g transform="translate(489.75 72) scale(0.92)"><g filter="url(#ds)" transform="translate(6 42) rotate(-6)"><rect x="0" y="0" width="140" height="38" rx="4" fill="#0f5132"/><rect x="10" y="7" width="26" height="24" rx="3" fill="#14251d"/><rect x="43" y="7" width="26" height="24" rx="3" fill="#14251d"/><rect x="76" y="7" width="26" height="24" rx="3" fill="#14251d"/><rect x="109" y="7" width="26" height="24" rx="3" fill="#14251d"/><g fill="#E8A13A"><rect x="8" y="34" width="6" height="6"/><rect x="18" y="34" width="6" height="6"/><rect x="28" y="34" width="6" height="6"/><rect x="38" y="34" width="6" height="6"/><rect x="48" y="34" width="6" height="6"/><rect x="58" y="34" width="6" height="6"/><rect x="68" y="34" width="6" height="6"/><rect x="78" y="34" width="6" height="6"/><rect x="88" y="34" width="6" height="6"/><rect x="98" y="34" width="6" height="6"/><rect x="108" y="34" width="6" height="6"/><rect x="118" y="34" width="6" height="6"/><rect x="128" y="34" width="6" height="6"/></g></g></g><text x="558.75" y="210" font-size="14" font-weight="700" fill="#1F3A5F" text-anchor="middle">Barrette de RAM</text><rect x="676.5" y="56" width="199.5" height="170" rx="12" fill="#F4F7FB" stroke="#D0D9E4" stroke-width="1.4"/><g transform="translate(707.25 72) scale(0.92)"><g filter="url(#ds)" transform="translate(20 34)"><ellipse cx="30" cy="26" rx="30" ry="22" fill="none" stroke="#2C6AA0" stroke-width="9"/><ellipse cx="30" cy="26" rx="30" ry="22" fill="none" stroke="#7FB6E4" stroke-width="3"/><path d="M56 34 q40 6 54 -6" stroke="#4a5560" stroke-width="3" fill="none"/><rect x="108" y="20" width="14" height="14" rx="2" fill="#c0392b"/></g></g><text x="776.25" y="210" font-size="14" font-weight="700" fill="#1F3A5F" text-anchor="middle">Bracelet antistatique</text></svg>